HIERARCHY
ROOT root
{
	OFFSET 0.000000 0.000000 0.000000
	CHANNELS 6 Xposition Yposition Zposition Zrotation Yrotation Xrotation
	JOINT lhip
	{
		OFFSET 0.058581 -0.082280 -0.017664
		CHANNELS 3 Zrotation Yrotation Xrotation
		JOINT lknee
		{
			OFFSET 0.043451 -0.386469 0.008037
			CHANNELS 3 Zrotation Yrotation Xrotation
			JOINT lankle
			{
				OFFSET -0.014790 -0.426874 -0.037428
				CHANNELS 3 Zrotation Yrotation Xrotation
				JOINT ltoe
				{
					OFFSET 0.041054 -0.060286 0.122042
					CHANNELS 3 Zrotation Yrotation Xrotation
					End Site
					{
						OFFSET 0.000000 0.000000 0.000000
					}
				}
			}
		}
	}
	JOINT rhip
	{
		OFFSET -0.060310 -0.090513 -0.013543
		CHANNELS 3 Zrotation Yrotation Xrotation
		JOINT rknee
		{
			OFFSET -0.043257 -0.383688 -0.004843
			CHANNELS 3 Zrotation Yrotation Xrotation
			JOINT rankle
			{
				OFFSET 0.019056 -0.420046 -0.034562
				CHANNELS 3 Zrotation Yrotation Xrotation
				JOINT rtoe
				{
					OFFSET -0.034840 -0.062106 0.130323
					CHANNELS 3 Zrotation Yrotation Xrotation
					End Site
					{
						OFFSET 0.000000 0.000000 0.000000
					}
				}
			}
		}
	}
	JOINT lowerback
	{
		OFFSET 0.004439 0.124404 -0.038385
		CHANNELS 3 Zrotation Yrotation Xrotation
		JOINT upperback
		{
			OFFSET 0.004488 0.137956 0.026820
			CHANNELS 3 Zrotation Yrotation Xrotation
			JOINT chest
			{
				OFFSET -0.002265 0.056032 0.002855
				CHANNELS 3 Zrotation Yrotation Xrotation
				JOINT lowerneck
				{
					OFFSET -0.013390 0.211636 -0.033468
					CHANNELS 3 Zrotation Yrotation Xrotation
					JOINT upperneck
					{
						OFFSET 0.010113 0.088937 0.050410
						CHANNELS 3 Zrotation Yrotation Xrotation
						End Site
						{
							OFFSET 0.000000 0.000000 0.000000
						}
					}
				}
				JOINT lclavicle
				{
					OFFSET 0.071702 0.114000 -0.018898
					CHANNELS 3 Zrotation Yrotation Xrotation
					JOINT lshoulder
					{
						OFFSET 0.122921 0.045205 -0.019046
						CHANNELS 3 Zrotation Yrotation Xrotation
						JOINT lelbow
						{
							OFFSET 0.255332 -0.015649 -0.022946
							CHANNELS 3 Zrotation Yrotation Xrotation
							JOINT lwrist
							{
								OFFSET 0.265709 0.012698 -0.007375
								CHANNELS 3 Zrotation Yrotation Xrotation
								End Site
								{
									OFFSET 0.000000 0.000000 0.000000
								}
							}
						}
					}
				}
				JOINT rclavicle
				{
					OFFSET -0.082954 0.112472 -0.023707
					CHANNELS 3 Zrotation Yrotation Xrotation
					JOINT rshoulder
					{
						OFFSET -0.113228 0.046853 -0.008472
						CHANNELS 3 Zrotation Yrotation Xrotation
						JOINT relbow
						{
							OFFSET -0.260127 -0.014369 -0.031269
							CHANNELS 3 Zrotation Yrotation Xrotation
							JOINT rwrist
							{
								OFFSET -0.269108 0.006794 -0.006027
								CHANNELS 3 Zrotation Yrotation Xrotation
								End Site
								{
									OFFSET 0.000000 0.000000 0.000000
								}
							}
						}
					}
				}
			}
		}
	}
}
MOTION
Frames: 10
Frame Time: 0.033333
2.306795 0.680049 0.992587 -73.304244 -0.376726 84.884182 -0.426348 -2.765598 3.723483 -0.231784 -14.830218 2.860951 0.802864 8.287861 -10.692607 0.000000 -0.000000 0.000000 0.425610 -4.491137 6.077761 -3.475618 -1.353076 5.938165 1.342269 -11.485510 -14.723899 0.000000 -0.000000 0.000000 0.254360 4.334812 6.017970 -0.939873 -1.363378 5.867988 -0.077082 2.029377 -4.126617 1.517669 20.829701 -0.618599 3.101413 20.208665 6.635366 -25.920489 -8.431242 0.613571 -54.087679 -7.927344 16.733491 -2.468905 -18.440251 16.997085 -6.002230 -3.919595 4.872543 24.104993 9.284381 6.880149 57.564332 3.328623 20.415543 -2.153078 24.053428 9.902961 4.562306 4.014973 -0.097844 
2.305953 0.680043 0.991740 -73.698650 -1.158871 84.922239 -1.389200 -2.486767 4.264876 0.296792 -14.381893 1.870233 1.243036 8.423367 -10.433859 0.000000 -0.000000 0.000000 -0.498007 -4.487520 6.381718 -3.521268 -2.109648 5.247144 1.824158 -10.728526 -14.480769 0.000000 -0.000000 0.000000 -0.137527 4.548893 5.667317 -1.587926 -0.799013 6.017026 -0.312769 1.949022 -4.001789 1.809283 20.736826 -0.437940 3.459878 19.972991 6.472237 -27.026256 -8.485951 1.490531 -52.246751 -6.983605 15.215773 -2.506466 -20.566501 15.622301 -6.379918 -3.296273 4.926802 24.991419 9.720795 7.516251 57.405795 3.462564 19.633666 -2.647872 24.353188 9.393067 3.552853 3.523614 1.201801 
2.309314 0.682636 0.990146 -73.094241 -1.409176 85.480724 -1.434037 -3.064615 2.638981 -0.159651 -14.115329 3.000442 0.941613 8.225081 -10.397281 0.000000 -0.000000 0.000000 -0.556150 -3.998644 5.264905 -3.591709 -2.912496 5.814054 2.050814 -11.377601 -14.675096 0.000000 -0.000000 0.000000 -0.576792 4.661196 6.157871 -1.589291 -0.997446 4.450408 -0.286807 1.866217 -3.203583 2.123811 20.388502 -0.217513 3.423654 19.573114 6.264341 -26.823127 -7.968087 1.493263 -52.434633 -6.469772 15.575048 -1.978711 -22.400017 16.256053 -3.728912 -3.425110 5.595375 25.150700 9.176178 7.364043 57.576904 3.701695 19.349961 -3.589350 25.368505 9.276217 -1.053470 2.829733 2.481276 
2.310659 0.683494 0.990582 -72.609078 -1.498480 85.601734 -1.445418 -3.212598 1.965745 -0.434485 -14.118060 3.666402 0.734924 8.086373 -10.142523 0.000000 -0.000000 0.000000 -0.664415 -3.645035 4.990610 -3.509296 -3.270473 6.140581 2.052564 -11.908729 -14.485694 0.000000 -0.000000 0.000000 -0.693729 4.736276 6.004220 -1.401683 -1.113718 4.544259 -0.351304 1.752880 -2.980719 2.336613 20.131331 0.466990 3.076723 18.592061 5.508518 -26.691264 -7.614613 1.369725 -52.472963 -6.418798 15.672821 -1.971275 -22.800957 16.693897 -3.018402 -3.140342 6.935504 25.527062 8.698097 7.287378 56.915828 3.614114 19.112977 -4.415031 26.675987 10.066133 -4.966838 2.322981 6.001556 
2.310953 0.683795 0.991153 -72.494207 -1.589670 85.474367 -1.570315 -3.182472 2.077307 -0.343464 -14.159939 3.597256 0.616159 8.160318 -10.064807 0.000000 -0.000000 0.000000 -0.793349 -3.520488 5.089587 -3.476557 -3.289077 6.296205 1.980411 -12.032817 -14.631271 0.000000 -0.000000 0.000000 -0.824379 4.757269 6.000999 -1.320586 -1.131116 4.833414 -0.322229 1.702210 -3.009205 2.391526 19.816360 0.772891 2.900360 18.191796 5.183350 -26.776842 -7.373332 1.189781 -52.312032 -6.160210 15.713018 -1.707826 -23.327745 16.637853 -2.024125 -3.207222 7.615460 25.776035 8.687816 7.164902 56.264469 3.551484 19.066238 -4.284709 27.191692 10.435013 -6.099508 2.748146 7.111621 
2.310888 0.684468 0.991532 -72.138100 -1.594222 85.603452 -1.404116 -3.201059 1.691949 -0.535703 -14.189597 3.899575 0.483146 7.977449 -9.983847 0.000000 -0.000000 0.000000 -0.838685 -3.596358 5.018240 -3.383691 -3.423582 6.265005 2.037595 -12.093530 -14.523653 0.000000 -0.000000 0.000000 -1.062889 4.749625 5.505240 -1.110887 -1.240715 5.237465 -0.284608 1.511273 -2.867244 2.556943 19.345330 1.060359 2.791776 17.303275 4.964116 -26.703290 -7.035110 0.992622 -52.192616 -5.992561 15.726796 -1.408786 -23.973868 16.359177 -0.917954 -2.936988 8.184772 26.004922 8.403213 6.877512 55.576370 3.752378 18.881149 -3.989928 27.418065 10.640993 -7.272710 2.941933 8.287113 
2.311026 0.685000 0.991751 -72.117722 -1.701213 85.651951 -1.399112 -3.237661 1.515685 -0.692681 -14.171223 4.044381 0.157604 7.850400 -9.815452 0.000000 -0.000000 0.000000 -0.986800 -3.555889 4.841174 -3.359541 -3.505541 6.477856 2.137964 -12.079169 -14.597165 0.000000 -0.000000 0.000000 -1.312084 4.821306 5.368652 -0.985080 -1.185334 5.474950 -0.232537 1.397357 -2.857421 2.508509 18.582947 1.245411 2.871881 16.122073 4.705378 -26.664248 -6.790811 0.797963 -52.002877 -6.126495 15.423159 -1.351989 -24.166246 15.344379 -0.456975 -3.354272 7.889899 26.265107 8.372291 6.696610 55.045410 3.722068 18.772617 -3.817458 27.142058 10.755027 -7.462596 3.361559 9.096145 
2.311765 0.685308 0.992107 -72.175206 -1.662696 85.720169 -1.362675 -3.123412 1.347765 -0.598037 -14.087308 4.150014 0.076494 7.907123 -9.780039 0.000000 -0.000000 0.000000 -0.948504 -3.461210 4.709556 -3.334987 -3.406825 6.533041 1.945922 -12.125714 -14.433868 0.000000 -0.000000 0.000000 -1.155870 4.876578 5.455721 -0.895279 -1.153522 5.468289 -0.449185 1.494661 -2.804824 2.047920 17.047723 0.970628 2.904098 14.338111 4.456054 -26.741307 -6.672431 0.408805 -51.764660 -6.167416 16.010684 -1.312298 -24.066670 15.682602 -0.613443 -3.258905 8.853114 26.525660 8.177131 6.144294 54.537598 3.279194 18.601422 -3.898731 27.231200 10.338814 -6.846739 3.464718 8.882946 
2.311927 0.685636 0.992375 -72.238361 -1.684023 85.774156 -1.304843 -3.047097 1.227219 -0.670300 -13.868042 4.260568 0.031686 7.764209 -9.757605 0.000000 -0.000000 0.000000 -0.964410 -3.385396 4.701262 -3.363306 -3.411174 6.425142 1.972666 -12.077506 -14.304861 0.000000 -0.000000 0.000000 -1.199630 4.922595 5.318971 -0.828430 -1.171477 5.492108 -0.536039 1.453655 -2.670628 1.854699 15.633103 1.823521 3.245129 12.555040 3.731061 -26.689566 -6.600311 0.239510 -51.663384 -6.382401 15.861018 -1.647990 -23.358367 14.498513 -2.292978 -3.030156 8.155087 26.391665 8.111639 5.699277 54.556191 2.813909 18.613944 -3.935054 27.308576 10.151517 -5.416784 3.315498 8.614438 
2.311962 0.685915 0.992494 -72.534599 -1.665605 85.861772 -1.320975 -2.994769 1.351222 -0.476283 -13.864308 3.933053 -0.004455 7.908385 -9.755982 0.000000 -0.000000 0.000000 -0.858971 -3.294285 4.503280 -3.451160 -3.151075 6.523677 2.008860 -12.169145 -14.307322 0.000000 -0.000000 0.000000 -1.376210 4.936246 5.002527 -0.604016 -1.250322 5.802144 -0.693826 1.368982 -2.587348 1.719318 13.297414 2.395417 3.465243 10.154172 3.047558 -26.255591 -6.180123 -0.292749 -52.171017 -6.411808 16.649472 -1.993815 -23.015884 14.457044 -3.491167 -2.871305 8.420711 26.115915 7.863538 4.790150 54.667956 2.580500 18.822501 -3.611775 27.050311 10.041033 -3.248564 3.192784 7.920136 
